<?xml version="1.0" encoding="iso-8859-1"?>
<!-- Uploaded to: SVG Repo, www.svgrepo.com, Generator: SVG Repo Mixer Tools -->
<!DOCTYPE svg PUBLIC "-//W3C//DTD SVG 1.1//EN" "http://www.w3.org/Graphics/SVG/1.1/DTD/svg11.dtd">
<svg fill="#000000" version="1.1" id="Capa_1" xmlns="http://www.w3.org/2000/svg" xmlns:xlink="http://www.w3.org/1999/xlink" 
	 width="800px" height="800px" viewBox="0 0 45.336 45.335"
	 xml:space="preserve">
<g>
	<path d="M22.668,4.583C10.168,4.583,0,11.461,0,19.917S10.168,35.25,22.668,35.25c1.199,0,2.414-0.064,3.615-0.196l3.199,5.22
		c0.178,0.291,0.492,0.472,0.834,0.479c0.006,0,0.012,0,0.018,0c0.334,0,0.646-0.168,0.832-0.444l5.566-8.351
		c5.471-2.92,8.604-7.296,8.604-12.039C45.336,11.46,35.166,4.583,22.668,4.583z M9.707,25.601H4.215
		c-0.602,0-1.074-0.476-1.074-1.076v-7.628c0-0.601,0.473-1.076,1.074-1.076h5.422c0.531,0,0.965,0.434,0.965,0.964
		c0,0.531-0.434,0.951-0.965,0.951h-4.36v1.984h3.73c0.531,0,0.965,0.433,0.965,0.964c0,0.53-0.434,0.95-0.965,0.95h-3.73v2.056
		h4.431c0.53,0,0.963,0.433,0.963,0.963C10.671,25.181,10.238,25.601,9.707,25.601z M16.25,23.462h-5.143
		c-0.531,0-0.965-0.434-0.965-0.964c0-0.53,0.434-0.964,0.965-0.964h5.143c0.529,0,0.963,0.434,0.963,0.964
		C17.213,23.028,16.779,23.462,16.25,23.462z M16.25,19.831h-5.143c-0.531,0-0.965-0.434-0.965-0.964
		c0-0.531,0.434-0.964,0.965-0.964h5.143c0.529,0,0.963,0.433,0.963,0.964C17.213,19.396,16.779,19.831,16.25,19.831z
		 M27.713,24.609c0,0.601-0.477,1.076-1.076,1.076c-0.588,0-1.062-0.49-1.062-1.076v-4.876l-1.887,2.906
		c-0.225,0.336-0.504,0.544-0.895,0.544c-0.391,0-0.67-0.208-0.895-0.544l-1.859-2.865v4.863c0,0.588-0.473,1.049-1.061,1.049
		s-1.049-0.461-1.049-1.049v-7.797c0-0.602,0.477-1.076,1.075-1.076h0.238c0.461,0,0.782,0.238,0.979,0.559l2.6,4.234l2.613-4.248
		c0.223-0.363,0.528-0.545,0.963-0.545h0.238c0.6,0,1.075,0.475,1.075,1.076L27.713,24.609L27.713,24.609z M36.73,24.54
		c-0.881,0.769-1.916,1.229-3.479,1.229c-2.879,0-5.018-2.224-5.018-5.031v-0.027c0-2.781,2.096-5.059,5.102-5.059
		c1.467,0,2.457,0.391,3.268,0.991c0.227,0.168,0.42,0.476,0.42,0.854c0,0.586-0.475,1.048-1.062,1.048
		c-0.293,0-0.488-0.112-0.641-0.21c-0.604-0.446-1.23-0.699-2-0.699c-1.648,0-2.836,1.37-2.836,3.047v0.028
		c0,1.676,1.16,3.074,2.836,3.074c0.908,0,1.51-0.279,2.125-0.77c0.168-0.14,0.391-0.238,0.643-0.238
		c0.545,0,1.006,0.449,1.006,0.992C37.094,24.105,36.926,24.372,36.73,24.54z M41.58,20.784h-3.895c-0.49,0-0.852-0.277-0.852-0.748
		c0-0.307,0.146-0.574,0.41-0.789l2.039-1.67c0.893-0.729,1.238-1.128,1.238-1.723c0-0.604-0.398-0.932-0.963-0.932
		c-0.451,0-0.77,0.194-1.168,0.625c-0.104,0.112-0.287,0.225-0.535,0.225c-0.396,0-0.717-0.317-0.717-0.717
		c0-0.175,0.072-0.359,0.188-0.492c0.57-0.666,1.25-1.055,2.336-1.055c1.484,0,2.469,0.87,2.469,2.213v0.021
		c0,1.2-0.611,1.795-1.885,2.778l-1.166,0.901h2.498c0.381,0,0.688,0.309,0.688,0.688S41.961,20.784,41.58,20.784z"/>
</g>
</svg>